<?xml version="1.0" encoding="UTF-8" standalone="no"?>
<!-- Created with Inkscape (http://www.inkscape.org/) -->

<svg
   xmlns:dc="http://purl.org/dc/elements/1.1/"
   xmlns:cc="http://creativecommons.org/ns#"
   xmlns:rdf="http://www.w3.org/1999/02/22-rdf-syntax-ns#"
   xmlns:svg="http://www.w3.org/2000/svg"
   xmlns="http://www.w3.org/2000/svg"
   xmlns:xlink="http://www.w3.org/1999/xlink"
   xmlns:sodipodi="http://sodipodi.sourceforge.net/DTD/sodipodi-0.dtd"
   xmlns:inkscape="http://www.inkscape.org/namespaces/inkscape"
   width="64px"
   height="64px"
   id="svg3140"
   sodipodi:version="0.32"
   inkscape:version="0.48.3.1 r9886"
   sodipodi:docname="run-tpg.svg"
   inkscape:output_extension="org.inkscape.output.svg.inkscape"
   version="1.1">
  <defs
     id="defs3142">
    <linearGradient
       id="linearGradient3864">
      <stop
         id="stop3866"
         offset="0"
         style="stop-color:#71b2f8;stop-opacity:1;" />
      <stop
         id="stop3868"
         offset="1"
         style="stop-color:#002795;stop-opacity:1;" />
    </linearGradient>
    <radialGradient
       inkscape:collect="always"
       xlink:href="#linearGradient3864"
       id="radialGradient3661"
       gradientUnits="userSpaceOnUse"
       gradientTransform="matrix(0.6186598,0.9666542,-1.0332462,0.6612786,-327.27568,-255.84136)"
       cx="282.64584"
       cy="29.149046"
       fx="282.64584"
       fy="29.149046"
       r="19.571428" />
    <linearGradient
       id="linearGradient3682">
      <stop
         style="stop-color:#ff6d0f;stop-opacity:1;"
         offset="0"
         id="stop3684" />
      <stop
         style="stop-color:#ff1000;stop-opacity:1;"
         offset="1"
         id="stop3686" />
    </linearGradient>
    <radialGradient
       inkscape:collect="always"
       xlink:href="#linearGradient3682"
       id="radialGradient3817"
       gradientUnits="userSpaceOnUse"
       gradientTransform="matrix(1.1149219,0.2722306,-0.7507171,3.0745639,-471.08629,-148.32863)"
       cx="270.58316"
       cy="33.899986"
       fx="270.58316"
       fy="33.899986"
       r="19.571428" />
    <inkscape:perspective
       sodipodi:type="inkscape:persp3d"
       inkscape:vp_x="0 : 32 : 1"
       inkscape:vp_y="0 : 1000 : 0"
       inkscape:vp_z="64 : 32 : 1"
       inkscape:persp3d-origin="32 : 21.333333 : 1"
       id="perspective3148" />
    <radialGradient
       inkscape:collect="always"
       xlink:href="#linearGradient3864"
       id="radialGradient2995"
       gradientUnits="userSpaceOnUse"
       gradientTransform="matrix(0.68092806,1.0855078,-1.1372427,0.74258515,-135.40893,-304.2606)"
       cx="282.64584"
       cy="29.149046"
       fx="282.64584"
       fy="29.149046"
       r="19.571428" />
    <radialGradient
       inkscape:collect="always"
       xlink:href="#linearGradient3682"
       id="radialGradient2998"
       gradientUnits="userSpaceOnUse"
       gradientTransform="matrix(0.94839783,0.2315704,-0.63859044,2.6153489,-212.89813,-126.37036)"
       cx="270.58316"
       cy="33.899986"
       fx="270.58316"
       fy="33.899986"
       r="19.571428" />
    <radialGradient
       inkscape:collect="always"
       xlink:href="#linearGradient3864-5"
       id="radialGradient2995-0"
       gradientUnits="userSpaceOnUse"
       gradientTransform="matrix(0.68092806,1.0855078,-1.1372427,0.74258515,-135.40893,-304.2606)"
       cx="282.64584"
       cy="29.149046"
       fx="282.64584"
       fy="29.149046"
       r="19.571428" />
    <linearGradient
       id="linearGradient3864-5">
      <stop
         id="stop3866-1"
         offset="0"
         style="stop-color:#71b2f8;stop-opacity:1;" />
      <stop
         id="stop3868-7"
         offset="1"
         style="stop-color:#002795;stop-opacity:1;" />
    </linearGradient>
  </defs>
  <sodipodi:namedview
     id="base"
     pagecolor="#ffffff"
     bordercolor="#666666"
     borderopacity="1.0"
     inkscape:pageopacity="0.0"
     inkscape:pageshadow="2"
     inkscape:zoom="8"
     inkscape:cx="35.708278"
     inkscape:cy="24.98286"
     inkscape:current-layer="layer1"
     showgrid="true"
     inkscape:document-units="px"
     inkscape:grid-bbox="true"
     inkscape:window-width="1280"
     inkscape:window-height="991"
     inkscape:window-x="0"
     inkscape:window-y="0"
     inkscape:window-maximized="1">
    <inkscape:grid
       type="xygrid"
       id="grid5099"
       empspacing="5"
       visible="true"
       enabled="true"
       snapvisiblegridlinesonly="true" />
  </sodipodi:namedview>
  <metadata
     id="metadata3145">
    <rdf:RDF>
      <cc:Work
         rdf:about="">
        <dc:format>image/svg+xml</dc:format>
        <dc:type
           rdf:resource="http://purl.org/dc/dcmitype/StillImage" />
        <dc:title />
      </cc:Work>
    </rdf:RDF>
  </metadata>
  <g
     id="layer1"
     inkscape:label="Layer 1"
     inkscape:groupmode="layer">
    <path
       inkscape:connector-curvature="0"
       style="opacity:1;fill:#ffffff;fill-opacity:1;fill-rule:evenodd;stroke:#ffffff;stroke-width:2.12343644999999981;stroke-linecap:butt;stroke-linejoin:miter;stroke-miterlimit:4;stroke-opacity:1;stroke-dasharray:none;stroke-dashoffset:0;marker:none;visibility:visible;display:inline;overflow:visible;enable-background:accumulate"
       d="m 47.546445,9.7766404 -7.922767,4.6376726 -3.498626,-1.23872 -3.337986,-8.7037018 -5.250828,0.2815237 -2.395037,9.0001721 -3.351997,1.637727 -8.36044,-3.731368 -3.5312283,4.00354 4.5455763,8.083309 -1.242172,3.559062 -8.5308435,3.405626 0.3039777,5.367676 8.8214268,2.443571 1.605198,3.419911 -3.685296,8.519416 3.924017,3.602779 7.922755,-4.637676 3.516435,1.277789 3.309941,8.693254 5.289108,-0.299697 2.366993,-9.010617 3.351998,-1.63773 8.378237,3.770437 3.531227,-4.003539 -4.545565,-8.083306 1.224353,-3.598133 8.520596,-3.377013 -0.265676,-5.385839 -8.831661,-2.414952 -1.60521,-3.419911 3.667498,-8.558485 -3.924004,-3.6027776 z m -11.86589,13.2556346 1.626376,0.962772 1.409074,1.303451 1.1281,1.555541 0.811498,1.729492 0.477121,1.864374 0.07903,1.910664 -0.270485,1.910168 -0.617289,1.813379 -0.981945,1.677506 -1.239265,1.419455 -1.524654,1.150951 -1.695145,0.827944 -1.827332,0.486781 -1.88296,0.10928 -1.872239,-0.275946 -1.777351,-0.629811 -1.644185,-1.001842 -1.381041,-1.293003 -1.138314,-1.52692 -0.81152,-1.729489 -0.466863,-1.892993 -0.107097,-1.921115 0.270463,-1.910172 0.617311,-1.813374 0.971698,-1.64889 1.249524,-1.448071 1.524644,-1.150954 1.695132,-0.827947 1.855389,-0.476328 1.872722,-0.08065 1.872229,0.275944 1.777363,0.629813 z"
       id="path3659-5" />
    <path
       inkscape:connector-curvature="0"
       style="fill:url(#radialGradient2995);fill-opacity:1;fill-rule:evenodd;stroke:#000137;stroke-width:2.12343644999999981;stroke-linecap:butt;stroke-linejoin:miter;stroke-miterlimit:4;stroke-opacity:1;stroke-dasharray:none;stroke-dashoffset:0;marker:none;visibility:visible;display:inline;overflow:visible;enable-background:accumulate;opacity:0.3"
       d="m 47.546445,9.7766402 -7.922767,4.6376728 -3.498626,-1.23872 -3.337986,-8.703702 -5.250828,0.2815237 -2.395037,9.0001723 -3.351997,1.637727 -8.36044,-3.731368 -3.5312283,4.00354 4.5455763,8.083309 -1.242172,3.559062 -8.5308435,3.405626 0.3039777,5.367676 8.8214268,2.443571 1.605198,3.419911 -3.685296,8.519416 3.924017,3.602779 7.922755,-4.637676 3.516435,1.277789 3.309941,8.693254 5.289108,-0.299697 2.366993,-9.010617 3.351998,-1.63773 8.378237,3.770437 3.531227,-4.003539 -4.545565,-8.083306 1.224353,-3.598133 8.520596,-3.377013 -0.265676,-5.385839 -8.831661,-2.414952 -1.60521,-3.419911 3.667498,-8.558485 -3.924004,-3.6027778 z m -11.86589,13.2556348 1.626376,0.962772 1.409074,1.303451 1.1281,1.555541 0.811498,1.729492 0.477121,1.864374 0.07903,1.910664 -0.270485,1.910168 -0.617289,1.813379 -0.981945,1.677506 -1.239265,1.419455 -1.524654,1.150951 -1.695145,0.827944 -1.827332,0.486781 -1.88296,0.10928 -1.872239,-0.275946 -1.777351,-0.629811 -1.644185,-1.001842 -1.381041,-1.293003 -1.138314,-1.52692 -0.81152,-1.729489 -0.466863,-1.892993 -0.107097,-1.921115 0.270463,-1.910172 0.617311,-1.813374 0.971698,-1.64889 1.249524,-1.448071 1.524644,-1.150954 1.695132,-0.827947 1.855389,-0.476328 1.872722,-0.08065 1.872229,0.275944 1.777363,0.629813 z"
       id="path3659" />
    <path
       transform="matrix(0.52173913,0,0.04891305,1.5652174,8.6440217,10.869565)"
       style="fill:none;stroke:#58eb00;stroke-width:5.53293990999999963;stroke-linecap:round;stroke-linejoin:round;stroke-miterlimit:4;stroke-opacity:1;fill-opacity:1"
       d="M 78,13.5 C 78,19.851275 62.553824,25 43.5,25 24.446176,25 9,19.851275 9,13.5 9,7.1487254 24.446176,2 43.5,2 c 0.300033,0 0.600052,0.0013 0.899983,0.00391"
       id="path3266" />
    <path
       style="font-size:medium;font-style:normal;font-variant:normal;font-weight:normal;font-stretch:normal;text-indent:0;text-align:start;text-decoration:none;line-height:normal;letter-spacing:normal;word-spacing:normal;text-transform:none;direction:ltr;block-progression:tb;writing-mode:lr-tb;text-anchor:start;baseline-shift:baseline;color:#000000;fill:#ff0000;fill-opacity:1;stroke:#000000;stroke-width:2;marker:none;visibility:visible;display:inline;overflow:visible;enable-background:accumulate;font-family:Sans;-inkscape-font-specification:Sans;stroke-miterlimit:4;stroke-dasharray:none;stroke-opacity:1"
       d="M 22.6875 5.28125 A 2.50025 2.50025 0 0 0 21.71875 10.0625 L 26.3125 12.3125 C 17.756714 14.77727 11.5 22.644126 11.5 32 C 11.5 43.333333 20.666667 52.5 32 52.5 C 43.333333 52.5 52.5 43.333333 52.5 32 A 2.50025 2.50025 0 1 0 47.5 32 C 47.5 40.666667 40.666667 47.5 32 47.5 C 23.333333 47.5 16.5 40.666667 16.5 32 C 16.5 24.777777 21.246528 18.844907 27.84375 17.0625 L 24.5625 21.09375 A 2.501758 2.501758 0 0 0 28.4375 24.21875 L 36.03125 14.875 A 2.50025 2.50025 0 0 0 35.15625 11.0625 L 23.90625 5.59375 A 2.50025 2.50025 0 0 0 22.6875 5.28125 z "
       id="path3831" />
  </g>
</svg>
